<?xml version="1.0" encoding="utf-8"?>
<!-- Generator: Adobe Illustrator 16.0.0, SVG Export Plug-In . SVG Version: 6.00 Build 0)  -->
<!DOCTYPE svg PUBLIC "-//W3C//DTD SVG 1.1//EN" "http://www.w3.org/Graphics/SVG/1.1/DTD/svg11.dtd">
<svg version="1.1" id="Ebene_1" xmlns="http://www.w3.org/2000/svg" xmlns:xlink="http://www.w3.org/1999/xlink" x="0px" y="0px"
	 width="1417.32px" height="1417.32px" viewBox="0 0 1417.32 1417.32" enable-background="new 0 0 1417.32 1417.32"
	 xml:space="preserve">
<g>
	<path fill-rule="evenodd" clip-rule="evenodd" fill="#FFFFFF" d="M751.529,1391.702c-4.725,0.636-76.54,0.647-80.938,0.065
		c-0.134-0.821-0.369-1.721-0.409-2.629c-0.072-1.597-0.026-3.199-0.026-4.799c-0.001-128.633-0.017-257.266,0.02-385.899
		c0.004-16.019-0.934-31.963-2.736-47.874c-1.46-12.881-3.584-25.63-6.582-38.25c-3.959-16.666-10.594-32.096-20.004-46.438
		c-11.636-17.732-24.673-34.267-40.231-48.723c-4.096-3.807-8.344-7.49-12.807-10.852c-13.246-9.979-24.922-21.54-35.248-34.469
		c-20.751-25.981-34.212-55.364-40.616-87.972c-3.568-18.168-4.506-36.554-2.881-54.943c4.298-48.65,23.502-90.638,57.756-125.504
		c27.359-27.849,60.213-46.151,98.24-55.088c10.131-2.381,20.4-3.792,30.779-4.684c12.017-1.034,23.992-0.763,35.934,0.47
		c22.279,2.298,43.628,8.138,63.99,17.533c54.429,25.113,95.288,73.51,110.834,131.427c3.406,12.691,5.608,25.598,6.361,38.74
		c3.424,59.767-15.655,111.303-56.67,154.779c-6.702,7.105-14.048,13.521-21.877,19.4c-11.827,8.88-22.15,19.356-31.717,30.594
		c-10.5,12.336-19.745,25.563-27.897,39.557c-6.498,11.154-10.582,23.249-13.686,35.702c-3.329,13.362-5.424,26.938-6.916,40.622
		c-1.98,18.152-2.65,36.352-2.644,54.604c0.052,125.913,0.027,251.827,0.024,377.74
		C751.584,1387.03,751.55,1389.248,751.529,1391.702z"/>
	<path fill-rule="evenodd" clip-rule="evenodd" fill="#FFFFFF" d="M881.497,121.124c-7.807-6.194-16.618-10.852-26.484-13.516
		c-9.72-2.625-19.569-2.385-29.197-1.574c-11.644-13.462-15.346-36.527-3.314-55.825c11.068-17.752,33.139-26.513,53.25-21.366
		c17.021,4.356,35.36,19.722,36.747,45.64C913.56,94.334,900.449,114.136,881.497,121.124z"/>
	<path fill-rule="evenodd" clip-rule="evenodd" fill="#FFFFFF" d="M621.368,1091.003c11.161,12.091,15.894,35.122,4.324,54.807
		c-11.063,18.821-33.395,28.098-54.491,22.424c-21.525-5.79-35.621-24.532-36.189-46.015c-0.538-20.362,13.146-40.59,31.087-45.979
		c7.659,6.04,16.311,10.724,26.021,13.292C601.818,1092.098,611.634,1092.619,621.368,1091.003z"/>
	<path fill-rule="evenodd" clip-rule="evenodd" fill="#FFFFFF" d="M825.913,1189.228c20.625,2.82,39.148-1.872,55.288-14.714
		c16.391,3.874,30.764,23.585,31.239,43.643c0.544,22.954-14.363,41.205-33.576,47.49c-21.118,6.906-43.796-1.479-55.64-19.327
		C810.302,1226.845,813.869,1203.26,825.913,1189.228z"/>
	<path fill-rule="evenodd" clip-rule="evenodd" fill="#FFFFFF" d="M539.474,121.056c-15.735-5.469-32.35-23.452-30.616-48.584
		c1.333-19.321,14.784-38.413,37.567-43.863c20.324-4.863,41.958,4.41,52.772,22.488c11.056,18.479,7.876,41.613-3.849,54.878
		c-2.694-0.146-5.552-0.309-8.411-0.456c-13.792-0.708-26.623,2.518-38.479,9.551C545.444,116.858,542.612,118.953,539.474,121.056z
		"/>
	<path fill-rule="evenodd" clip-rule="evenodd" fill="#FFFFFF" d="M539.496,1174.404c19.996,14.821,36.569,16.983,55.553,14.955
		c10.799,10.868,15.357,33.666,5.605,52.391c-9.787,18.793-31.153,29.807-52.753,25.389c-22.958-4.696-37.388-23.513-39-43.654
		C506.814,1197.426,524.273,1179.506,539.496,1174.404z"/>
	<path fill-rule="evenodd" clip-rule="evenodd" fill="#FFFFFF" d="M621.47,204.391c-20.825-2.915-39.263,2.074-55.358,14.778
		c-17.604-5.11-31.422-25.267-31.109-45.413c0.34-21.911,14.7-40.549,35.683-46.428c21.743-6.092,43.593,3.714,54.473,21.396
		C637.023,168.005,633.193,191.194,621.47,204.391z"/>
	<path fill-rule="evenodd" clip-rule="evenodd" fill="#FFFFFF" d="M1252.062,532.374c2.981-20.746-1.997-39.189-14.69-55.349
		c3.907-16.162,23.694-30.41,42.794-31.161c22.337-0.878,42.162,13.697,48.525,34.118c6.558,21.041-1.953,43.501-19.598,55.152
		C1290.752,547.246,1267.146,545.185,1252.062,532.374z"/>
	<path fill-rule="evenodd" clip-rule="evenodd" fill="#FFFFFF" d="M169.06,763.05c-2.947,20.718,1.992,39.351,14.915,55.575
		c-5.252,15.352-22.194,31.959-47.044,30.899c-24.423-1.043-40.553-18.315-45.185-36.596c-5.167-20.394,3.384-42.033,21.299-53.266
		C131.667,747.988,154.548,750.78,169.06,763.05z"/>
	<path fill-rule="evenodd" clip-rule="evenodd" fill="#FFFFFF" d="M267.237,736.739c-2.809,20.609,1.864,39.142,14.729,55.275
		c-3.765,16.268-23.313,30.296-43.152,31.146c-21.525,0.923-41.124-12.846-47.971-33.459c-7.167-21.574,2.078-44.211,19.272-55.655
		C228.656,721.708,252.791,724.24,267.237,736.739z"/>
	<path fill-rule="evenodd" clip-rule="evenodd" fill="#FFFFFF" d="M282.088,503.21c-6.104,7.661-10.701,16.35-13.348,26.034
		c-2.653,9.71-2.688,19.56-1.585,29.352c-12.246,11.342-35.382,15.374-54.314,4.457c-18.707-10.787-28.278-33.272-23.009-53.803
		c5.476-21.334,23.846-36.324,45.786-37.041C256.104,471.54,276.266,484.876,282.088,503.21z"/>
	<path fill-rule="evenodd" clip-rule="evenodd" fill="#FFFFFF" d="M184.05,476.739c-6.298,7.91-10.871,16.599-13.49,26.317
		c-2.619,9.715-2.828,19.542-1.538,29.198c-12.959,11.679-35.741,15.294-54.498,4.41c-17.713-10.279-28.065-31.36-23.078-52.954
		c4.817-20.852,21.954-35.796,43.271-37.682C157.615,444.002,176.935,458.075,184.05,476.739z"/>
	<path fill-rule="evenodd" clip-rule="evenodd" fill="#FFFFFF" d="M855.228,219.318c-16.429-12.988-35.047-17.907-55.545-14.947
		c-11.784-13.011-15.083-36.395-4.186-54.856c10.532-17.844,32.104-27.467,52.667-22.763c21.079,4.822,36.064,22.843,37.747,43.193
		C887.988,195.043,871.764,213.359,855.228,219.318z"/>
	<path fill-rule="evenodd" clip-rule="evenodd" fill="#FFFFFF" d="M1237.268,818.531c12.813-16.216,17.821-34.816,14.821-55.347
		c12.583-11.419,35.442-15.639,54.779-4.278c18.051,10.604,28.289,32.36,22.41,54.482c-5.533,20.819-23.766,35.542-46.013,36.216
		C1263.065,850.216,1242.937,836.576,1237.268,818.531z"/>
	<path fill-rule="evenodd" clip-rule="evenodd" fill="#FFFFFF" d="M370.974,349.006c-18.341,3.426-39.657-5.818-49.903-24.913
		c-10.154-18.921-6.568-42.127,8.23-57.148c15.653-15.889,39.364-18.488,57.458-8.848c20.836,11.102,28.31,33.584,25.165,49.88
		c-0.835,0.44-1.778,1.017-2.781,1.456c-17.024,7.441-29.286,19.646-36.75,36.667C371.946,347.115,371.42,348.096,370.974,349.006z"
		/>
	<path fill-rule="evenodd" clip-rule="evenodd" fill="#FFFFFF" d="M828.932,317.593c-8.031-6.435-16.73-11.018-26.455-13.563
		c-9.699-2.538-19.513-3.064-29.342-1.336c-5.244-6.524-8.348-13.613-9.859-21.422c-1.072-5.54-1.313-11.115-0.113-16.666
		c0.47-2.169,1.138-4.303,1.833-6.414c0.498-1.513,1.345-2.919,1.771-4.446c1.821-6.547,5.715-11.799,10.57-16.28
		c13.785-12.725,29.928-16.908,47.91-11.486c18.025,5.434,28.977,18.027,33.462,36.188c1.263,5.116,1.865,10.389,0.325,15.646
		c-0.313,1.065-0.438,2.196-0.551,3.306c-1.136,11.079-6.677,19.821-14.586,27.242C839.672,312.323,834.837,315.395,828.932,317.593
		z"/>
	<path fill-rule="evenodd" clip-rule="evenodd" fill="#FFFFFF" d="M371.014,946.381c0.494,1.057,0.918,1.913,1.3,2.788
		c7.446,17.018,19.632,29.325,36.698,36.681c2.371,1.021,3.41,2.293,3.578,4.925c1.592,24.899-15.435,47.958-41.518,51.656
		c-31.055,4.402-52.887-18.957-55.501-42.651c-2.656-24.074,13.396-48.919,40.781-53.584
		C360.087,945.559,366.152,945.646,371.014,946.381z"/>
	<path fill-rule="evenodd" clip-rule="evenodd" fill="#FFFFFF" d="M1121.896,1018.299c20.717-3.447,41.775,7.506,51.059,26.872
		c9.15,19.089,4.954,41.761-10.443,56.388c-15.379,14.608-38.857,17.478-57.307,7.076c-20.796-11.724-27.403-34.942-23.92-49.628
		C1100.479,1051.375,1114.145,1037.793,1121.896,1018.299z"/>
	<path fill-rule="evenodd" clip-rule="evenodd" fill="#FFFFFF" d="M340.104,236.327c-19.499,7.76-33.143,21.374-40.8,40.674
		c-18.631,3.65-39.374-5.784-49.576-23.795c-10.388-18.338-7.619-41.669,6.589-56.993c15.255-16.453,38.599-19.585,56.714-10.923
		C332.167,194.439,343.345,215.179,340.104,236.327z"/>
	<path fill-rule="evenodd" clip-rule="evenodd" fill="#FFFFFF" d="M1121.976,277.262c-7.752-19.483-21.362-33.122-40.603-40.799
		c-3.599-13.446,2.379-36.956,22.867-49.111c17.399-10.322,40.929-8.967,57.103,5.454c15.991,14.258,20.883,37.113,12.093,56.457
		C1165.03,267.758,1145.072,280.496,1121.976,277.262z"/>
	<path fill-rule="evenodd" clip-rule="evenodd" fill="#FFFFFF" d="M1139.028,792.278c12.868-16.453,17.893-34.883,14.914-55.3
		c11.677-11.314,34.885-15.29,53.383-5.16c17.357,9.505,29.477,30.32,24.112,53.741c-5.455,23.812-26.233,36.565-44.319,37.586
		C1161.78,824.575,1143.94,807.291,1139.028,792.278z"/>
	<path fill-rule="evenodd" clip-rule="evenodd" fill="#FFFFFF" d="M442.981,874.581c7.647,19.184,21.188,32.89,40.805,40.716
		c1.711,7.945,0.391,15.537-1.96,23.078c-3.572,11.454-11.442,19.57-21.141,25.764c-16.33,10.43-40.209,9.684-57.036-5.194
		c-15.961-14.113-21.845-37.56-11.482-57.65C402.153,881.934,420.477,871.106,442.981,874.581z"/>
	<path fill-rule="evenodd" clip-rule="evenodd" fill="#FFFFFF" d="M1153.875,558.512c1.638-9.716,1.068-19.52-1.497-29.229
		c-2.57-9.726-7.25-18.368-13.304-26.083c5.777-18.305,25.93-31.65,46.438-30.988c21.716,0.701,40.395,15.632,45.716,36.545
		c5.342,20.991-3.87,43.06-22.506,54.05C1189.667,574.044,1166.469,570.067,1153.875,558.512z"/>
	<path fill-rule="evenodd" clip-rule="evenodd" fill="#FFFFFF" d="M1050.604,946.221c29.13-4.099,54.109,18.316,55.219,46.149
		c1.132,28.408-22.675,52.549-52.182,50.472c-28.107-1.98-48.83-27.956-44.441-55.354c0.69-0.39,1.469-0.93,2.322-1.296
		c17.41-7.464,29.881-19.875,37.412-37.256c0.315-0.729,0.688-1.434,1.052-2.139
		C1050.055,946.664,1050.214,946.578,1050.604,946.221z"/>
	<path fill-rule="evenodd" clip-rule="evenodd" fill="#FFFFFF" d="M380.52,766.19c-4.629,11.007-11.74,19.133-21.729,24.687
		c-4.348,2.417-8.911,4.248-13.973,4.676c-3.646,0.308-7.276,1.385-10.896,1.312c-20.547-0.414-40.037-14.335-45.759-36.411
		c-5.064-19.537,2.415-39.936,18.749-51.725c2.604-1.879,5.331-3.499,8.444-4.419c1.375-0.406,2.752-0.871,4.04-1.493
		c14.125-6.828,34.628-2.264,45.555,7.061c0.114,0.098,0.177,0.255,0.484,0.714c-1.465,9.587-1.103,19.413,1.467,29.109
		C369.473,749.41,374.094,758.099,380.52,766.19z"/>
	<path fill-rule="evenodd" clip-rule="evenodd" fill="#FFFFFF" d="M1055.816,710.166c5.203-4.385,11.08-7.128,17.44-8.883
		c7.036-1.941,14.176-2.285,21.354-0.89c1.709,0.333,3.374,0.939,5.019,1.532c1.651,0.595,3.202,1.503,4.882,1.972
		c6.882,1.921,12.326,6.076,16.932,11.261c12.584,14.165,16.522,30.512,10.459,48.541c-5.989,17.81-18.776,28.457-37.135,32.38
		c-4.727,1.011-9.474,1.396-14.23,0.063c-0.913-0.255-1.896-0.271-2.849-0.374c-11.567-1.251-20.734-6.956-28.366-15.411
		c-3.664-4.06-6.505-8.665-8.582-13.997c0.671-0.999,1.327-2.069,2.074-3.071c8.991-12.049,13.355-25.675,13.808-40.616
		c0.057-1.907-0.191-3.825-0.319-5.737C1056.154,714.714,1055.984,712.494,1055.816,710.166z"/>
	<path fill-rule="evenodd" clip-rule="evenodd" fill="#FFFFFF" d="M799.626,1091.008c20.709,3.102,39.103-2.045,55.29-14.641
		c15.717,3.548,29.938,23.027,31.106,41.751c1.339,21.471-11.841,42.075-33.066,49.217c-20.685,6.959-43.625-0.837-55.827-18.851
		C784.586,1129.967,786.963,1105.65,799.626,1091.008z"/>
	<path fill-rule="evenodd" clip-rule="evenodd" fill="#FFFFFF" d="M299.274,1018.41c7.687,19.26,21.286,32.913,40.54,40.559
		c4.369,17.597-5.981,39.279-23.34,49.334c-18.815,10.898-42.319,8.065-58.076-6.999c-15.626-14.939-19.494-38.526-9.384-57.75
		C259.482,1023.649,281.433,1014.815,299.274,1018.41z"/>
	<path fill-rule="evenodd" clip-rule="evenodd" fill="#FFFFFF" d="M978.648,874.224c14.102-1.56,26.577,1.734,37.428,10.585
		c1.833,1.495,3.342,3.401,4.932,5.179c0.957,1.068,1.692,2.341,2.679,3.377c5.998,6.303,8.683,14.129,9.837,22.458
		c3.035,21.912-9.08,43.082-29.389,51.475c-12.892,5.328-25.839,5.086-38.664-0.414c-3.097-1.327-6.021-2.941-8.434-5.374
		c-0.783-0.79-1.666-1.505-2.584-2.137c-8.608-5.927-13.306-14.488-16.124-24.225c-1.845-6.37-2.045-12.9-1.144-19.405
		c4.456-2.374,8.889-4.562,13.146-7.049c4.431-2.589,8.334-5.914,11.957-9.551c3.51-3.523,6.72-7.317,9.23-11.604
		C974.01,883.284,976.19,878.847,978.648,874.224z"/>
	<path fill-rule="evenodd" clip-rule="evenodd" fill="#FFFFFF" d="M1055.675,585.508c1.338-10.394,1.146-20.221-1.483-29.931
		c-2.628-9.701-7.197-18.386-13.551-26.282c4.009-9.948,10.402-17.67,19.303-23.306c5.464-3.459,11.313-5.872,17.873-6.346
		c2.854-0.207,5.697-1.115,8.526-1.035c19.627,0.561,34.224,9.658,43.114,27.042c11.168,21.837,3.671,48.684-16.859,62.12
		c-1.978,1.294-4.241,2.164-6.408,3.15c-1.305,0.593-2.689,1.008-4.023,1.542C1085.47,599.149,1070.34,595.537,1055.675,585.508z"/>
	<path fill-rule="evenodd" clip-rule="evenodd" fill="#FFFFFF" d="M483.724,380.113c-2.101,0.948-3.865,1.694-5.586,2.529
		c-15.256,7.408-26.413,18.839-33.388,34.292c-2.018,4.47-1.41,4.485-7.067,4.667c-11.253,0.361-21.443-2.77-30.564-9.365
		c-2.862-2.07-5.494-4.372-7.454-7.371c-0.697-1.065-1.484-2.096-2.366-3.013c-5.309-5.518-7.851-12.393-9.247-19.672
		c-5.106-26.621,12.317-51.146,36.924-56.61c11.864-2.635,23.17-1.111,33.899,4.559c1.535,0.811,2.909,1.945,4.299,3.004
		c1.27,0.967,2.392,2.138,3.7,3.044c8.153,5.644,12.705,13.763,15.606,22.928c1.847,5.833,2.477,11.875,1.906,17.999
		C484.298,378.037,483.986,378.949,483.724,380.113z"/>
	<path fill-rule="evenodd" clip-rule="evenodd" fill="#FFFFFF" d="M1050.303,349.122c-1.717-3.417-3.308-7.081-5.337-10.483
		c-2.039-3.418-4.308-6.749-6.857-9.798c-2.551-3.05-5.401-5.911-8.44-8.475c-3.038-2.563-6.354-4.856-9.766-6.903
		c-3.408-2.044-7.086-3.637-10.611-5.411c-3.404-17.948,5.461-39.614,25.318-50.059c18.694-9.833,41.673-6.376,56.737,8.448
		c14.941,14.704,18.754,37.401,9.5,56.167C1091.478,341.607,1070.631,352.392,1050.303,349.122z"/>
	<path fill-rule="evenodd" clip-rule="evenodd" fill="#FFFFFF" d="M937.176,379.906c-1.842-15.081,2.041-28.257,12.087-39.55
		c0.945-1.062,2.124-1.924,3.234-2.83c1.238-1.009,2.623-1.856,3.769-2.957c5.643-5.424,12.648-8.095,20.103-9.433
		c21.173-3.801,40.605,5.895,50.523,22.667c9.245,15.636,9.514,31.792,1.337,48.026c-0.781,1.549-1.902,2.938-2.953,4.334
		c-0.959,1.275-2.135,2.393-3.047,3.697c-6.4,9.161-15.637,13.861-26.099,16.578c-4.994,1.297-10.111,1.364-15.242,1.07
		c-1.79-0.103-3.043-0.761-3.614-2.542c-0.243-0.757-0.601-1.479-0.934-2.205c-7.313-15.884-18.866-27.524-34.801-34.784
		C940.102,381.324,938.686,380.624,937.176,379.906z"/>
	<path fill-rule="evenodd" clip-rule="evenodd" fill="#FFFFFF" d="M648.126,302.657c-10.116-1.61-19.921-1.166-29.621,1.421
		c-9.702,2.587-18.381,7.186-26.224,13.439c-1.427-0.559-2.639-0.929-3.757-1.488c-11.193-5.595-19.088-14.249-23.824-25.81
		c-0.181-0.443-0.331-0.901-0.458-1.363c-3.091-11.294-4.257-22.548,0.292-33.803c4.479-11.084,11.759-19.679,22.282-25.398
		c22.004-11.959,50.21-5.443,64.363,16.858c1.014,1.597,1.708,3.409,2.451,5.163c0.746,1.763,1.215,3.654,2.07,5.356
		c2.063,4.105,2.657,8.489,2.869,12.988C659.133,281.996,655.704,292.69,648.126,302.657z"/>
	<path fill-rule="evenodd" clip-rule="evenodd" fill="#FFFFFF" d="M365.4,585.191c-5.044,4.326-10.783,7.016-16.958,8.818
		c-7.021,2.049-14.187,2.186-21.368,1.113c-2.024-0.303-3.995-1.07-5.942-1.759c-2.255-0.798-4.481-1.69-6.676-2.643
		c-1.892-0.821-3.842-1.601-5.562-2.713c-15.896-10.286-25.278-29.176-21.454-49.77c3.688-19.862,18.853-34.915,38.397-38.803
		c5.071-1.009,10.116-1.392,15.187-0.059c0.612,0.161,1.263,0.191,1.898,0.253c13.267,1.289,23.263,8.172,31.285,18.368
		c2.577,3.275,4.558,6.912,6.128,10.941c-0.591,0.975-1.08,1.968-1.735,2.835c-7.808,10.323-12.288,21.97-13.687,34.788
		c-0.555,5.085-0.527,10.208,0.177,15.302C365.243,582.95,365.297,584.052,365.4,585.191z"/>
	<path fill-rule="evenodd" clip-rule="evenodd" fill="#FFFFFF" d="M592.049,977.85c1.4,1.005,2.69,1.928,3.976,2.854
		c11.915,8.578,25.309,12.711,39.894,13.063c3.176,0.077,6.365-0.467,9.551-0.68c3.286-0.221,4.236,0.655,4.441,4.029
		c0.048,0.796,0.022,1.598,0.022,2.396c0.001,15.661-0.067,31.323,0.057,46.983c0.025,3.242-0.789,5.809-3.009,8.208
		c-13.423,14.516-29.841,20.258-49.003,15.326c-19.135-4.925-30.923-17.756-35.541-37.01c-1.242-5.177-1.552-10.42-0.241-15.665
		c0.193-0.771,0.326-1.572,0.363-2.366c0.356-7.639,3.567-14.206,7.873-20.267C575.919,986.999,583.107,981.361,592.049,977.85z"/>
	<path fill-rule="evenodd" clip-rule="evenodd" fill="#FFFFFF" d="M772.747,993.417c1.51-0.811,3.119-0.335,4.671-0.167
		c17.814,1.937,33.852-2.682,48.357-13.016c1.036-0.738,2.066-1.486,3.265-2.349c1.29,0.542,2.635,1.009,3.89,1.65
		c11.135,5.697,19.035,14.349,23.623,26.001c0.88,2.237,1.563,4.51,1.697,6.947c0.088,1.588,0.322,3.195,0.729,4.731
		c1.797,6.763,0.723,13.386-1.259,19.832c-6.863,22.321-27.95,37.06-52.434,34.279c-12.383-1.405-22.729-7.143-31.017-16.524
		c-1.656-1.875-2.503-3.826-2.485-6.441c0.109-16.783,0.046-33.568,0.072-50.352C771.86,996.457,771.462,994.781,772.747,993.417z"
		/>
	<path fill-rule="evenodd" clip-rule="evenodd" fill="#FFFFFF" d="M327.226,623.724c-3.218,7.944-4.969,15.988-4.934,24.425
		c0.034,8.261,1.987,16.1,4.858,23.575c-6.494,10.337-24.287,19.493-42.42,13.926c-14.322-4.397-28.015-17.724-28.171-37.653
		c-0.152-19.381,12.772-33.262,27.632-38.039C302.042,604.219,319.867,612.643,327.226,623.724z"/>
	<path fill-rule="evenodd" clip-rule="evenodd" fill="#FFFFFF" d="M1007.995,671.649c6.566-16.023,6.534-31.895,0.097-47.66
		c6.451-11.725,24.697-18.521,40.142-14.776c16.534,4.009,29.499,17.914,30.386,36.879c0.843,18.014-10.466,33.429-26.778,39.109
		C1033.37,691.633,1015.082,682.643,1007.995,671.649z"/>
	<path fill-rule="evenodd" clip-rule="evenodd" fill="#FFFFFF" d="M1179.926,671.677c6.437-15.805,6.57-31.836,0.028-47.737
		c6.803-11.949,25.216-18.603,40.682-14.626c16.656,4.283,29.089,18.671,29.885,36.815c0.784,17.881-10.741,33.953-27.748,39.395
		C1204.318,691.429,1186.257,681.972,1179.926,671.677z"/>
	<path fill-rule="evenodd" clip-rule="evenodd" fill="#FFFFFF" d="M956.189,478.11c1.048-15.049,13.538-29.073,29.069-33.029
		c16.779-4.272,34.444,2.909,43.539,17.701c8.976,14.597,7.467,33.408-3.675,46.442c-10.607,12.408-28.977,17.595-44.636,10.844
		c-0.307-1.193-0.75-2.546-0.997-3.933c-2.563-14.417-9.549-26.266-20.671-35.727C957.972,479.686,957.141,478.942,956.189,478.11z"
		/>
	<path fill-rule="evenodd" clip-rule="evenodd" fill="#FFFFFF" d="M956.219,817.126c13.854-10.602,21.618-24.644,23.993-41.465
		c14.141-6.925,32.789-2.526,43.723,9.204c11.971,12.845,14.088,31.87,5.277,47.067c-8.463,14.6-26.239,22.788-43.621,18.497
		C969.782,846.526,957.026,832.244,956.219,817.126z"/>
	<path fill-rule="evenodd" clip-rule="evenodd" fill="#FFFFFF" d="M497.957,327.51c-13.585-0.053-27.998-12.281-32.569-27.633
		c-4.917-16.512,1.715-34.614,16.152-44.086c14.902-9.778,34.096-8.551,47.64,2.998c12.127,10.341,17.73,28.976,10.702,44.615
		c-0.878,0.247-1.917,0.65-2.994,0.826c-14.987,2.441-27.227,9.643-36.947,21.239c-0.511,0.609-1.046,1.198-1.582,1.785
		C498.254,327.367,498.092,327.426,497.957,327.51z"/>
	<path fill-rule="evenodd" clip-rule="evenodd" fill="#FFFFFF" d="M734.577,178.404c-7.915-3.232-15.979-4.913-24.408-4.86
		c-8.246,0.051-16.129,1.802-23.561,4.828c-10.628-6.752-19.265-24.167-14.092-41.944c4.81-16.527,19.861-28.101,36.776-28.639
		c17.281-0.55,33.267,10.389,38.876,27.105C753.948,152.119,746.59,170.2,734.577,178.404z"/>
	<path fill-rule="evenodd" clip-rule="evenodd" fill="#FFFFFF" d="M734.706,350.315c-16.058-6.521-32.089-6.553-47.988-0.107
		c-9.428-5.394-19.317-22.286-14.518-40.773c4.506-17.358,19.435-28.558,35.448-29.685c19.188-1.351,34.588,10.797,40.137,25.928
		C754,322.625,747.368,341.173,734.706,350.315z"/>
	<path fill-rule="evenodd" clip-rule="evenodd" fill="#FFFFFF" d="M366.545,476.876c-14.924,6.885-33.617,2.23-44.502-10.124
		c-11.637-13.208-13.226-32.254-3.967-47.193c9.125-14.722,27.334-21.824,43.655-17.347c15.747,4.32,28.32,18.622,28.717,33.107
		C376.925,445.728,368.929,459.636,366.545,476.876z"/>
	<path fill-rule="evenodd" clip-rule="evenodd" fill="#FFFFFF" d="M497.956,967.586c10.615,13.697,24.443,21.821,41.396,24.06
		c2.694,4.414,4.154,11.722,3.575,17.732c-0.868,9.015-4.12,17.024-10.225,23.785c-11.202,12.404-29.703,16.993-46.028,9.336
		c-17.301-8.114-24.675-25.583-22.622-40.752C466.504,983.64,479.897,970.145,497.956,967.586z"/>
	<path fill-rule="evenodd" clip-rule="evenodd" fill="#FFFFFF" d="M880.174,402.251c-10.581-13.774-24.483-21.769-41.472-24.096
		c-6.788-12.441-3.239-30.843,7.112-41.877c12.24-13.047,31.344-15.9,46.202-8.695c17.122,8.302,24.685,26.884,21.813,42.513
		C910.293,389.349,894.274,400.913,880.174,402.251z"/>
	<path fill-rule="evenodd" clip-rule="evenodd" fill="#FFFFFF" d="M838.507,917.346c8.046-1.252,15.966-3.558,23.243-7.787
		c7.144-4.151,13.143-9.573,18.075-16.003c4.977-0.299,11.603,2.01,17.42,6.028c7.353,5.08,12.419,11.911,15.225,20.361
		c5.551,16.721-0.915,35.279-15.625,45.12c-14.873,9.95-34.558,8.676-48.038-3.032C835.371,950.365,831.844,930.833,838.507,917.346
		z"/>
	<path fill-rule="evenodd" clip-rule="evenodd" fill="#FFFFFF" d="M496.714,229.286c-17.323,2.379-31.199,10.419-41.594,24.013
		c-15.415-1.143-29.441-13.813-33.288-29.833c-4.015-16.72,3.63-34.489,18.509-43.222c14.75-8.657,33.903-6.839,46.754,4.909
		C499.907,196.867,503.245,215.73,496.714,229.286z"/>
	<path fill-rule="evenodd" clip-rule="evenodd" fill="#FFFFFF" d="M924.457,1066.184c16.842-2.334,30.857-10.13,41.353-23.805
		c12.321-0.734,27.474,11.434,32.422,25.942c5.766,16.904-0.584,35.646-15.443,45.586c-14.732,9.855-34.185,8.739-47.674-2.701
		C919.91,1098.311,918.504,1077.881,924.457,1066.184z"/>
	<path fill-rule="evenodd" clip-rule="evenodd" fill="#FFFFFF" d="M1129.347,861.324c14.039-6.174,33.087-2.769,44.647,10.854
		c11.181,13.175,12.647,31.703,3.628,46.438c-8.508,13.899-25.335,21.963-43.082,17.69c-15.893-3.827-28.348-17.712-29.511-32.809
		c2.92-2.805,6.112-5.477,8.814-8.575c2.713-3.113,5.231-6.482,7.294-10.052c2.061-3.566,3.716-7.43,5.062-11.33
		C1127.546,869.64,1128.29,865.532,1129.347,861.324z"/>
	<path fill-rule="evenodd" clip-rule="evenodd" fill="#FFFFFF" d="M455.194,1042.229c10.425,13.561,24.325,21.568,41.285,23.902
		c6.698,11.978,3.582,30.909-7.442,42.206c-12.79,13.106-32.081,16.088-47.961,7.249c-15.292-8.512-23.395-26.401-19.216-43.729
		C425.737,1055.776,440.549,1042.588,455.194,1042.229z"/>
	<path fill-rule="evenodd" clip-rule="evenodd" fill="#FFFFFF" d="M966.148,253.45c-10.639-13.835-24.532-21.835-41.541-24.156
		c-6.772-12.25-3.45-30.675,7.508-42.232c11.84-12.486,30.916-15.824,46.294-8.113c14.227,7.134,24.135,22.611,21.509,41.377
		C997.521,237.46,983.91,250.805,966.148,253.45z"/>
	<path fill-rule="evenodd" clip-rule="evenodd" fill="#FFFFFF" d="M734.751,264.243c-15.43-5.485-27.408-7.408-48.324-0.121
		c-10.189-6.254-18.969-23.507-14.067-41.256c4.049-14.656,16.966-28.645,37.364-29.154c19.742-0.494,33.551,12.557,38.43,27.065
		C753.931,237.956,746.636,256.034,734.751,264.243z"/>
	<path fill-rule="evenodd" clip-rule="evenodd" fill="#FFFFFF" d="M292.187,861.67c2.318,17.291,10.446,31.113,23.995,41.516
		c-1.597,16.366-14.467,30.356-31.293,33.534c-19.037,3.596-34.741-6.076-42.264-19.651c-8.366-15.098-5.882-34.111,6.064-46.61
		C261.363,857.196,280.705,855.772,292.187,861.67z"/>
	<path fill-rule="evenodd" clip-rule="evenodd" fill="#FFFFFF" d="M1030.407,860.342c13.7-10.58,21.84-24.398,24.112-41.436
		c9.726-5.917,28.477-4.894,41.127,6.295c12.875,11.388,17.061,30.266,9.944,45.954c-8.035,17.714-26.315,25.108-41.433,23.01
		C1046.799,891.754,1032.542,877.613,1030.407,860.342z"/>
	<path fill-rule="evenodd" clip-rule="evenodd" fill="#FFFFFF" d="M540.939,402.319c-17.66-2.673-30.898-15.451-33.684-32.728
		c-2.89-17.927,6.44-33.654,20.207-41.149c14.284-7.776,33.106-6.034,45.861,5.829c12.572,11.692,15.685,30.269,9.394,43.812
		C565.716,380.389,551.618,388.35,540.939,402.319z"/>
	<path fill-rule="evenodd" clip-rule="evenodd" fill="#FFFFFF" d="M413.127,623.764c-6.502,16.031-6.479,31.911,0.01,47.951
		c-0.597,0.87-1.1,1.875-1.844,2.646c-10.601,11.003-23.475,15.39-38.351,11.798c-15.038-3.631-25.05-13.346-29.046-28.29
		c-6.407-23.958,9.961-47.021,34.25-49.536c13.604-1.409,25.069,3.516,34.127,13.837
		C412.577,622.516,412.725,622.999,413.127,623.764z"/>
	<path fill-rule="evenodd" clip-rule="evenodd" fill="#FFFFFF" d="M390.482,860.046c-0.552,14.718-13.063,28.898-28.791,33.146
		c-16.594,4.48-34.585-2.715-43.634-17.369c-9.263-15.001-7.631-34.032,4.021-47.186c11.899-13.434,31.095-16.438,44.396-10.104
		c1.297,8.017,3.535,15.965,7.772,23.237C378.401,848.9,383.755,854.96,390.482,860.046z"/>
	<path fill-rule="evenodd" clip-rule="evenodd" fill="#FFFFFF" d="M316.21,391.846c-2.927,2.811-6.122,5.485-8.828,8.585
		c-2.716,3.111-5.23,6.481-7.306,10.044c-2.075,3.562-3.776,7.407-5.127,11.307c-1.349,3.892-2.062,8.004-3.068,12.081
		c-10.262,5.671-29.47,4.609-42.358-8.067c-12.827-12.616-14.899-31.749-7.664-45.971c7.978-15.683,24.581-24.105,42.347-21.29
		C300.619,361.137,313.856,374.87,316.21,391.846z"/>
	<path fill-rule="evenodd" clip-rule="evenodd" fill="#FFFFFF" d="M465.222,478.026c-6.75,5.23-12.347,11.296-16.536,18.603
		c-4.104,7.157-6.597,14.847-7.581,22.878c-12.077,6.725-30.498,3.689-41.901-6.972c-13.234-12.373-15.859-31.133-8.993-45.756
		c7.534-16.047,24.018-24.701,40.779-22.619C448.789,446.37,461.952,459.421,465.222,478.026z"/>
	<path fill-rule="evenodd" clip-rule="evenodd" fill="#FFFFFF" d="M541.107,893.304c10.616,13.847,24.614,21.677,41.491,24.024
		c6.266,12.412,3.775,31.61-9.142,43.701c-12.446,11.649-31.58,14.391-47.065,5.349c-14.844-8.667-22.53-26.108-18.609-43.146
		C512.044,904.719,528.404,893.995,541.107,893.304z"/>
	<path fill-rule="evenodd" clip-rule="evenodd" fill="#FFFFFF" d="M923.262,967.527c8.779,1.135,16.162,4.727,22.157,10.801
		c10.889,11.033,14.558,24.336,10.314,39.209c-4.255,14.911-14.493,24.407-29.577,27.719c-25.715,5.645-48.497-14.578-47.918-39.394
		c0.098-4.188,0.788-8.25,2.16-12.209c0.471-1.356,1.357-2.058,2.75-2.315c2.666-0.491,5.366-0.886,7.965-1.627
		c11.518-3.284,21.207-9.492,29.066-18.538C921.118,970.092,922.028,968.986,923.262,967.527z"/>
	<path fill-rule="evenodd" clip-rule="evenodd" fill="#FFFFFF" d="M1030.335,434.979c2.058-15.276,14.044-31.577,35.465-33.917
		c13.774-1.505,31.109,5.067,39.471,22.536c7.239,15.126,3.887,33.316-8.04,45.123c-11.188,11.075-29.449,14.727-42.674,8.006
		C1052.316,459.587,1044.117,445.619,1030.335,434.979z"/>
	<path fill-rule="evenodd" clip-rule="evenodd" fill="#FFFFFF" d="M241.272,623.729c-6.617,16.101-6.498,32.138-0.069,47.898
		c-6.749,10.871-24.644,19.027-41.445,14.303c-16.843-4.735-28.813-20.447-29.122-37.395c-0.298-16.321,9.76-32.565,27.101-38.404
		C216.489,603.817,234.22,613.028,241.272,623.729z"/>
	<path fill-rule="evenodd" clip-rule="evenodd" fill="#FFFFFF" d="M881.163,303.353c-6.368-14.981-2.257-34.078,11.755-45.32
		c13.083-10.498,31.449-12.13,46.485-2.349c14.389,9.36,21.054,26.858,16.573,43.535c-4.118,15.331-18.347,27.719-32.671,28.366
		c-2.819-2.926-5.499-6.117-8.604-8.815c-3.117-2.708-6.49-5.22-10.063-7.276c-3.569-2.054-7.435-3.702-11.337-5.041
		C889.406,305.116,885.304,304.383,881.163,303.353z"/>
	<path fill-rule="evenodd" clip-rule="evenodd" fill="#FFFFFF" d="M1093.995,671.649c3.05-7.544,4.901-15.598,4.878-23.984
		c-0.022-8.228-1.737-16.153-4.788-23.584c6.053-11.588,24.142-18.326,39.708-14.987c16.771,3.598,29.698,19.005,30.689,36.079
		c1.104,19.034-10.953,34.794-27.172,40.201C1119.101,691.444,1100.892,682.554,1093.995,671.649z"/>
	<path fill-rule="evenodd" clip-rule="evenodd" fill="#FFFFFF" d="M440.736,775.619c1.002,4.062,1.715,8.175,3.063,12.068
		c1.351,3.9,3.05,7.748,5.123,11.313c2.074,3.566,4.581,6.945,7.297,10.057c2.707,3.101,5.91,5.769,8.846,8.577
		c-1.1,13.535-12.986,30.182-32.94,33.476c-12.695,2.095-31.758-2.862-41.199-20.999c-7.978-15.324-4.852-34.223,7.453-46.42
		C409.264,772.9,427.627,768.852,440.736,775.619z"/>
	<path fill-rule="evenodd" clip-rule="evenodd" fill="#FFFFFF" d="M1129.291,434.042c-3.954-20.757-10.916-30.581-24.117-41.89
		c-0.024-13.23,12.25-27.92,27.149-32.492c16.706-5.126,34.937,1.431,44.583,16.036c9.7,14.685,8.602,33.925-2.672,47.274
		C1162.077,437.365,1142.664,440.195,1129.291,434.042z"/>
	<path fill-rule="evenodd" clip-rule="evenodd" fill="#FFFFFF" d="M504.681,729.969c8.103,19.688,18.808,37.786,31.827,54.259
		c-4.945,17.072-26.898,28.079-45.924,23.076c-21.836-5.742-33.249-27.456-28.704-47.008
		C467.291,737.017,489.639,727.24,504.681,729.969z"/>
	<path fill-rule="evenodd" clip-rule="evenodd" fill="#FFFFFF" d="M884.847,784.861c13.265-16.634,24.156-34.978,32.241-54.689
		c5.598-1.656,14.761-0.071,21.922,3.771c9.604,5.152,16.234,12.906,19.387,23.343c6.721,22.255-6.289,43.231-25.745,49.394
		C909.231,814.096,889.245,798.587,884.847,784.861z"/>
	<path fill-rule="evenodd" clip-rule="evenodd" fill="#FFFFFF" d="M490.186,615.211c-2.75,21.666-2.591,43.177,0.5,64.392
		c-13.632,11.765-36.866,9.879-50.599-3.876c-14.54-14.564-15.801-37.559-2.23-53.598
		C451.721,605.741,475.138,604.202,490.186,615.211z"/>
	<path fill-rule="evenodd" clip-rule="evenodd" fill="#FFFFFF" d="M931.043,680.295c3.33-21.845,3.425-43.644,0.636-65.256
		c13.341-10.997,36.335-8.608,49.632,4.922c14.302,14.553,15.208,37.692,2.1,53.224
		C969.973,689.105,946.971,691.586,931.043,680.295z"/>
	<path fill-rule="evenodd" clip-rule="evenodd" fill="#FFFFFF" d="M502.793,565.456c-16.887,2.727-35.272-10.287-40.384-28.464
		c-5.469-19.446,4.705-39.895,23.584-47.335c20.226-7.971,41.242,1.997,49.393,18.316c-0.406,0.671-0.818,1.52-1.38,2.254
		c-12.397,16.219-22.374,33.812-30.016,52.736C503.635,563.842,503.171,564.676,502.793,565.456z"/>
	<path fill-rule="evenodd" clip-rule="evenodd" fill="#FFFFFF" d="M885.966,507.74c7.776-15.497,28.157-26.092,48.858-18.233
		c17.897,6.795,29.236,26.104,24.123,46.646c-4.547,18.27-22.348,31.449-39.942,29.362c-4.236-10.085-8.788-20.25-14.334-29.934
		C899.112,525.875,892.851,516.644,885.966,507.74z"/>
	<path fill-rule="evenodd" clip-rule="evenodd" fill="#FFFFFF" d="M628.384,438.636c-20.902,8.418-39.987,19.635-57.306,33.567
		c-6.492-2.397-12.994-8.727-16.928-16.39c-4.743-9.238-5.687-18.943-2.922-28.873c5.7-20.466,26.406-32.168,46.145-28.088
		C615.819,402.666,630.365,420.888,628.384,438.636z"/>
	<path fill-rule="evenodd" clip-rule="evenodd" fill="#FFFFFF" d="M792.456,437.917c-0.84-15.679,10.686-35.005,32.201-39.21
		c18.101-3.537,39.041,7.176,45.107,27.64c5.31,17.909-3.268,38.816-18.859,45.574c-6.118-4.318-12.097-8.861-18.399-12.898
		c-6.442-4.126-13.084-7.981-19.857-11.539C806.035,444.009,799.146,441.06,792.456,437.917z"/>
	<path fill-rule="evenodd" clip-rule="evenodd" fill="#FFFFFF" d="M744.293,425.357c-22.602-3.393-45.042-3.291-67.262,0.051
		c-8.742-11.979-9.112-34.663,6.603-49.228c14.803-13.72,37.365-14.074,52.576-1.164
		C751.271,387.799,754.306,409.854,744.293,425.357z"/>
	<path fill-rule="evenodd" clip-rule="evenodd" fill="#FFFFFF" d="M752.381,362.072c10.395-10.612,16.259-22.927,17.763-37.18
		c12.458-6.489,37.526-2.552,50.125,12.701c-1.345,4.537-2.899,9.044-3.986,13.663c-1.061,4.506-1.649,9.147-1.25,13.792
		c0.407,4.744,1.113,9.462,1.715,14.405c-0.712,0.312-1.39,0.682-2.112,0.915c-18.287,5.896-31.132,17.68-38.447,35.468
		c-0.24,0.583-0.572,1.127-0.842,1.65c-2.746,0.229-2.746,0.229-5.675-1.057c0.184-2.899,0.423-5.899,0.553-8.904
		c0.257-5.938-0.292-11.792-1.817-17.558c-2.369-8.959-6.595-16.921-12.619-23.944C754.759,364.824,753.725,363.63,752.381,362.072z
		"/>
	<path fill-rule="evenodd" clip-rule="evenodd" fill="#FFFFFF" d="M497.48,397.801c8.576,11.817,19.888,19.463,33.735,23.375
		c-0.555,5.107-1.241,9.963-1.57,14.843c-0.334,4.961,0.149,9.909,1.282,14.764c1.092,4.683,2.527,9.287,4.862,13.49
		c2.398,4.318,5.163,8.432,7.94,12.914c-0.668,1.469-2.157,2.61-3.883,3.991c-5.195-4.07-10.619-7.68-16.733-10.115
		c-6.135-2.444-12.476-3.925-19.074-4.329c-6.578-0.403-13.041,0.46-19.615,1.958c-0.453-1.042-0.908-1.871-1.183-2.755
		c-3.817-12.293-10.826-22.347-21.065-30.151c-0.5-0.381-0.94-0.844-1.34-1.207c0.053-6.266,4.655-15.706,10.885-22.458
		C479.024,404.202,489.058,398.544,497.48,397.801z"/>
	<path fill-rule="evenodd" clip-rule="evenodd" fill="#FFFFFF" d="M651.766,416.149c-1.97,1.517-3.75,1.874-5.953,1.552
		c-7.517-19.383-21.317-32.128-41.539-38.076c0.079-0.897,0.064-1.654,0.22-2.375c2.74-12.678,1.996-25.068-2.993-37.123
		c-0.299-0.722-0.476-1.495-0.677-2.144c9.627-13.006,33.055-20.181,49.808-13.536c0.24,0.92,0.631,1.965,0.777,3.043
		c1.676,12.423,6.882,23.164,15.317,32.386c0.537,0.586,1.026,1.216,1.519,1.842c0.086,0.109,0.073,0.296,0.192,0.848
		c-6.74,7.049-12.044,15.279-14.982,24.926C650.572,396.962,650.01,406.58,651.766,416.149z"/>
	<path fill-rule="evenodd" clip-rule="evenodd" fill="#FFFFFF" d="M387.31,587.68c-6.156-14.895-0.85-38.472,13.477-49.783
		c6.417,2.386,13.034,4.583,20.121,5.109c7.083,0.525,14.012-0.212,21.135-1.748c0.395,0.709,0.895,1.334,1.116,2.045
		c5.78,18.57,17.753,31.441,35.667,38.873c0.583,0.242,1.133,0.563,1.733,0.863c0.576,2.063-0.3,3.722-1.158,5.718
		c-6.604-0.608-13.083-1.316-19.622-0.275c-6.535,1.041-12.743,2.906-18.661,5.821c-5.916,2.914-11.038,6.95-15.813,11.367
		C410.316,594.403,411.675,593.438,387.31,587.68z"/>
	<path fill-rule="evenodd" clip-rule="evenodd" fill="#FFFFFF" d="M942.089,588.819c-1.448-1.745-1.515-3.506-1.943-5.416
		c0.885-0.477,1.667-0.987,2.515-1.342c17.37-7.292,29.111-19.795,35.011-37.729c0.295-0.896,0.662-1.768,1.098-2.92
		c1.101,0.14,2.175,0.205,3.22,0.42c12.559,2.586,24.783,1.621,36.639-3.388c0.575-0.243,1.202-0.36,1.712-0.509
		c12.327,9.12,20.438,32.363,13.572,49.731c-4.563,1.095-9.239,2.04-13.804,3.363c-4.462,1.293-8.697,3.273-12.534,5.901
		c-3.938,2.697-7.675,5.688-11.766,8.75c-4.67-4.424-9.82-8.409-15.714-11.341c-5.913-2.942-12.12-4.823-18.659-5.837
		C954.894,587.487,948.403,587.979,942.089,588.819z"/>
	<path fill-rule="evenodd" clip-rule="evenodd" fill="#FFFFFF" d="M937.007,826.689c4.123,14.485,11.846,25.732,23.423,34.083
		c-1.277,15.794-18.545,34.53-36.62,36.929c-8.427-11.569-19.726-19.487-33.738-23.398c0-1.2-0.166-2.161,0.024-3.046
		c4.088-19.003-0.014-36.089-11.931-51.369c-0.29-0.372-0.489-0.815-0.797-1.336c0.746-1.813,2.214-2.952,3.984-4.252
		c7.875,6.29,16.512,10.885,26.351,13.09C917.392,829.563,927.011,829.016,937.007,826.689z"/>
	<path fill-rule="evenodd" clip-rule="evenodd" fill="#FFFFFF" d="M484.583,826.748c9.759,2.331,19.383,2.786,29.091,0.573
		c9.701-2.212,18.219-6.714,25.917-12.902c2.054,0.786,3.092,2.368,4.442,3.938c-0.751,1.039-1.375,1.928-2.026,2.795
		c-11.226,14.943-14.717,31.601-11.056,49.846c0.184,0.917,0.362,1.835,0.548,2.777c-4.417,1.863-8.712,3.521-12.87,5.471
		c-4.361,2.046-8.339,4.785-11.814,8.114c-3.334,3.193-6.413,6.655-9.726,10.128c-14.714,0.07-34.692-19.639-36.409-36.169
		c3.345-3.177,6.801-6.247,10.005-9.56c3.347-3.461,6.091-7.439,8.188-11.768C480.881,835.849,482.538,831.535,484.583,826.748z"/>
	<path fill-rule="evenodd" clip-rule="evenodd" fill="#FFFFFF" d="M889.742,421.522c17.846-6.448,23.938-11.412,34.134-23.57
		c6.212,0.116,15.322,4.518,22.302,10.927c7.489,6.876,12.465,15.221,14.706,25.38c-5.794,4.342-10.83,9.189-14.896,15.002
		c-4.066,5.814-6.81,12.241-8.91,19.095c-0.918,0-1.709,0.144-2.432-0.021c-18.597-4.238-35.466-0.474-50.714,10.878
		c-0.767,0.571-1.54,1.135-2.413,1.779c-1.912-0.681-2.999-2.214-4.29-3.923c0.836-1.202,1.605-2.369,2.435-3.491
		c8.268-11.188,12.287-23.749,11.936-37.638c-0.088-3.492-0.783-6.969-1.225-10.45C890.215,424.238,889.979,422.994,889.742,421.522
		z"/>
	<path fill-rule="evenodd" clip-rule="evenodd" fill="#FFFFFF" d="M442.075,753.994c-6.985-0.963-13.843-2.431-20.933-1.661
		c-7.047,0.765-13.771,2.542-20.176,5.235c-14.314-10.713-19.975-35.06-13.466-50.215c14.292-1.532,26.808-7.319,37.327-17.755
		c1.076,0.857,2.082,1.582,3.001,2.403c8.156,7.291,17.525,12.17,28.296,14.262c5.506,1.07,11.042,1.664,16.659,0.989
		c2.052-0.247,4.121-0.358,6.234-0.537c1.545,1.574,1.696,3.408,1.828,5.221c-4.55,2.45-8.956,4.644-13.178,7.147
		c-4.138,2.455-7.696,5.688-10.976,9.214c-3.39,3.645-6.414,7.585-8.61,12.043C445.975,744.617,444.223,749.068,442.075,753.994z"/>
	<path fill-rule="evenodd" clip-rule="evenodd" fill="#FFFFFF" d="M996.137,689.472c10.538,10.363,22.963,16.358,37.337,17.83
		c7.099,14.712,0.814,39.413-13.15,50.324c-6.494-2.707-13.359-4.562-20.567-5.324c-7.079-0.748-13.917,0.904-21.09,1.651
		c-6-20.17-18.719-34.004-38.354-41.578c0.037-2.03,0.312-3.821,1.715-5.689c6.397,0.663,12.911,1.242,19.435,0.263
		c6.53-0.98,12.746-2.899,18.653-5.852C986.005,698.152,991.135,694.135,996.137,689.472z"/>
	<path fill-rule="evenodd" clip-rule="evenodd" fill="#FFFFFF" d="M573.9,821.539c13.647,8.293,38.089,35.459,49.614,55.269
		c-5.987,13.976-23.661,22.746-40.946,19.927c-16.499-2.69-30.085-15.795-32.407-33.475
		C547.747,844.871,557.517,828.008,573.9,821.539z"/>
	<path fill-rule="evenodd" clip-rule="evenodd" fill="#FFFFFF" d="M797.701,877.399c13.676-21.171,29.49-40.265,49.274-55.605
		c13.723,3.8,24.573,20.15,24.455,36.397c-0.13,17.839-12.233,33.228-29.76,37.878C823.738,900.827,805.396,891.758,797.701,877.399
		z"/>
	<path fill-rule="evenodd" clip-rule="evenodd" fill="#FFFFFF" d="M648.591,971.432c-14.015,5.787-37.682-0.587-47.871-14.048
		c2.504-6.333,4.752-12.966,5.148-20.052c0.393-7.037,0.114-14.02-1.902-21.083c0.837-0.413,1.471-0.839,2.17-1.054
		c10.449-3.204,19.472-8.7,26.968-16.677c0.319-0.341,0.746-0.581,1.168-0.903c1.449,0.508,1.542,1.914,1.952,3.019
		c3.342,8.995,5.64,18.285,7.508,27.677c2.337,11.749,3.728,23.638,4.824,35.557C648.788,966.376,648.591,968.925,648.591,971.432z"
		/>
	<path fill-rule="evenodd" clip-rule="evenodd" fill="#FFFFFF" d="M787.277,897.726c8.298,8.971,18.064,14.766,29.521,17.987
		c-0.623,4.989-1.33,9.686-1.762,14.408c-0.425,4.645,0.159,9.288,1.186,13.795c1.058,4.641,2.642,9.162,4.023,13.834
		c-10.402,13.437-33.995,19.237-47.071,13.837C772.814,955.653,779.436,912.171,787.277,897.726z"/>
</g>
</svg>
